<mxfile host="app.diagrams.net" agent="Mozilla/5.0 (Windows NT 10.0; Win64; x64) AppleWebKit/537.36 (KHTML, like Gecko) Chrome/134.0.0.0 Safari/537.36" version="26.2.14">
  <diagram name="PÃ¡gina-1" id="aSuacdG5YggpLxAOi9Hm">
    <mxGraphModel grid="1" page="1" gridSize="10" guides="1" tooltips="1" connect="1" arrows="1" fold="1" pageScale="1" pageWidth="827" pageHeight="1169" math="0" shadow="0">
      <root>
        <mxCell id="0" />
        <mxCell id="1" parent="0" />
        <mxCell id="4uu7ZnmH71ehyplZa654-1" value="Paciente" style="shape=umlActor;verticalLabelPosition=bottom;verticalAlign=top;html=1;outlineConnect=0;" vertex="1" parent="1">
          <mxGeometry x="80" y="30" width="30" height="60" as="geometry" />
        </mxCell>
        <mxCell id="4uu7ZnmH71ehyplZa654-3" value="Rwecepcom" style="shape=umlActor;verticalLabelPosition=bottom;verticalAlign=top;html=1;outlineConnect=0;" vertex="1" parent="1">
          <mxGeometry x="520" y="160" width="30" height="60" as="geometry" />
        </mxCell>
        <mxCell id="4uu7ZnmH71ehyplZa654-7" value="" style="endArrow=classic;html=1;rounded=0;exitX=0.5;exitY=0.5;exitDx=0;exitDy=0;exitPerimeter=0;" edge="1" parent="1" source="4uu7ZnmH71ehyplZa654-1" target="4uu7ZnmH71ehyplZa654-8">
          <mxGeometry width="50" height="50" relative="1" as="geometry">
            <mxPoint x="390" y="250" as="sourcePoint" />
            <mxPoint x="280" y="130" as="targetPoint" />
          </mxGeometry>
        </mxCell>
        <mxCell id="4uu7ZnmH71ehyplZa654-8" value="Turno" style="ellipse;whiteSpace=wrap;html=1;" vertex="1" parent="1">
          <mxGeometry x="290" y="20" width="120" height="80" as="geometry" />
        </mxCell>
        <mxCell id="4uu7ZnmH71ehyplZa654-9" value="web" style="ellipse;whiteSpace=wrap;html=1;" vertex="1" parent="1">
          <mxGeometry x="294" y="-100" width="120" height="80" as="geometry" />
        </mxCell>
        <mxCell id="4uu7ZnmH71ehyplZa654-10" value="" style="endArrow=classic;html=1;rounded=0;entryX=0.5;entryY=0;entryDx=0;entryDy=0;dashed=1;" edge="1" parent="1" source="4uu7ZnmH71ehyplZa654-9" target="4uu7ZnmH71ehyplZa654-8">
          <mxGeometry width="50" height="50" relative="1" as="geometry">
            <mxPoint x="390" y="250" as="sourcePoint" />
            <mxPoint x="440" y="200" as="targetPoint" />
          </mxGeometry>
        </mxCell>
        <mxCell id="4uu7ZnmH71ehyplZa654-15" value="Doctor" style="shape=umlActor;verticalLabelPosition=bottom;verticalAlign=top;html=1;outlineConnect=0;" vertex="1" parent="1">
          <mxGeometry x="520" y="360" width="30" height="60" as="geometry" />
        </mxCell>
        <mxCell id="4uu7ZnmH71ehyplZa654-19" value="" style="endArrow=classic;html=1;rounded=0;exitX=0.5;exitY=0.5;exitDx=0;exitDy=0;exitPerimeter=0;" edge="1" parent="1" source="fmfyy9koi70KCCpdWHO8-7">
          <mxGeometry width="50" height="50" relative="1" as="geometry">
            <mxPoint x="390" y="250" as="sourcePoint" />
            <mxPoint x="340" y="190" as="targetPoint" />
          </mxGeometry>
        </mxCell>
        <mxCell id="4uu7ZnmH71ehyplZa654-20" value="Scan" style="ellipse;whiteSpace=wrap;html=1;" vertex="1" parent="1">
          <mxGeometry x="290" y="350" width="120" height="80" as="geometry" />
        </mxCell>
        <mxCell id="fmfyy9koi70KCCpdWHO8-8" value="" style="endArrow=classic;html=1;rounded=0;exitX=0.5;exitY=0.5;exitDx=0;exitDy=0;exitPerimeter=0;" edge="1" parent="1" source="4uu7ZnmH71ehyplZa654-3" target="fmfyy9koi70KCCpdWHO8-7">
          <mxGeometry width="50" height="50" relative="1" as="geometry">
            <mxPoint x="585" y="190" as="sourcePoint" />
            <mxPoint x="340" y="190" as="targetPoint" />
          </mxGeometry>
        </mxCell>
        <mxCell id="fmfyy9koi70KCCpdWHO8-21" style="edgeStyle=orthogonalEdgeStyle;rounded=0;orthogonalLoop=1;jettySize=auto;html=1;exitX=0.5;exitY=1;exitDx=0;exitDy=0;entryX=0.5;entryY=0;entryDx=0;entryDy=0;" edge="1" parent="1" source="fmfyy9koi70KCCpdWHO8-7" target="4uu7ZnmH71ehyplZa654-20">
          <mxGeometry relative="1" as="geometry" />
        </mxCell>
        <mxCell id="fmfyy9koi70KCCpdWHO8-7" value="Validar cliente" style="ellipse;whiteSpace=wrap;html=1;" vertex="1" parent="1">
          <mxGeometry x="290" y="150" width="120" height="80" as="geometry" />
        </mxCell>
        <mxCell id="fmfyy9koi70KCCpdWHO8-9" value="" style="endArrow=classic;html=1;rounded=0;entryX=0.5;entryY=0;entryDx=0;entryDy=0;exitX=0.5;exitY=1;exitDx=0;exitDy=0;" edge="1" parent="1" source="4uu7ZnmH71ehyplZa654-8" target="fmfyy9koi70KCCpdWHO8-7">
          <mxGeometry width="50" height="50" relative="1" as="geometry">
            <mxPoint x="407" y="-1" as="sourcePoint" />
            <mxPoint x="392" y="42" as="targetPoint" />
          </mxGeometry>
        </mxCell>
        <mxCell id="fmfyy9koi70KCCpdWHO8-29" style="edgeStyle=orthogonalEdgeStyle;rounded=0;orthogonalLoop=1;jettySize=auto;html=1;exitX=0;exitY=0.625;exitDx=0;exitDy=0;exitPerimeter=0;" edge="1" parent="1" source="4uu7ZnmH71ehyplZa654-20" target="4uu7ZnmH71ehyplZa654-1">
          <mxGeometry relative="1" as="geometry">
            <mxPoint x="40" y="320" as="sourcePoint" />
            <Array as="points">
              <mxPoint x="50" y="400" />
              <mxPoint x="50" y="60" />
            </Array>
          </mxGeometry>
        </mxCell>
        <mxCell id="fmfyy9koi70KCCpdWHO8-11" value="&amp;lt;&amp;lt;inlcude&amp;gt;&amp;gt;" style="text;html=1;align=center;verticalAlign=middle;whiteSpace=wrap;rounded=0;" vertex="1" parent="1">
          <mxGeometry x="370" y="130" width="60" height="30" as="geometry" />
        </mxCell>
        <mxCell id="fmfyy9koi70KCCpdWHO8-12" value="" style="endArrow=classic;html=1;rounded=0;exitX=0.5;exitY=0.5;exitDx=0;exitDy=0;exitPerimeter=0;entryX=1;entryY=0.5;entryDx=0;entryDy=0;" edge="1" parent="1" source="4uu7ZnmH71ehyplZa654-15" target="4uu7ZnmH71ehyplZa654-20">
          <mxGeometry width="50" height="50" relative="1" as="geometry">
            <mxPoint x="340" y="170" as="sourcePoint" />
            <mxPoint x="390" y="120" as="targetPoint" />
          </mxGeometry>
        </mxCell>
        <mxCell id="fmfyy9koi70KCCpdWHO8-17" value="&amp;lt;&amp;lt;Extended&amp;gt;&amp;gt;" style="text;html=1;align=center;verticalAlign=middle;whiteSpace=wrap;rounded=0;" vertex="1" parent="1">
          <mxGeometry x="370" y="-20" width="60" height="30" as="geometry" />
        </mxCell>
        <mxCell id="fmfyy9koi70KCCpdWHO8-22" value="" style="endArrow=classic;html=1;rounded=0;exitX=0;exitY=0;exitDx=0;exitDy=0;entryX=1;entryY=1;entryDx=0;entryDy=0;dashed=1;" edge="1" parent="1" source="4uu7ZnmH71ehyplZa654-20" target="fmfyy9koi70KCCpdWHO8-23">
          <mxGeometry width="50" height="50" relative="1" as="geometry">
            <mxPoint x="340" y="70" as="sourcePoint" />
            <mxPoint x="210" y="210" as="targetPoint" />
          </mxGeometry>
        </mxCell>
        <mxCell id="fmfyy9koi70KCCpdWHO8-23" value="fisico" style="ellipse;whiteSpace=wrap;html=1;" vertex="1" parent="1">
          <mxGeometry x="90" y="260" width="100" height="60" as="geometry" />
        </mxCell>
        <mxCell id="fmfyy9koi70KCCpdWHO8-24" value="Digital" style="ellipse;whiteSpace=wrap;html=1;" vertex="1" parent="1">
          <mxGeometry x="500" y="260" width="100" height="60" as="geometry" />
        </mxCell>
        <mxCell id="fmfyy9koi70KCCpdWHO8-25" value="" style="endArrow=classic;html=1;rounded=0;entryX=0.5;entryY=1;entryDx=0;entryDy=0;exitX=1;exitY=0;exitDx=0;exitDy=0;dashed=1;" edge="1" parent="1" source="4uu7ZnmH71ehyplZa654-20" target="fmfyy9koi70KCCpdWHO8-24">
          <mxGeometry width="50" height="50" relative="1" as="geometry">
            <mxPoint x="323" y="350" as="sourcePoint" />
            <mxPoint x="390" y="220" as="targetPoint" />
          </mxGeometry>
        </mxCell>
        <mxCell id="fmfyy9koi70KCCpdWHO8-26" value="&amp;lt;&amp;lt;Extend&amp;gt;&amp;gt;" style="text;html=1;align=center;verticalAlign=middle;whiteSpace=wrap;rounded=0;" vertex="1" parent="1">
          <mxGeometry x="200" y="360" width="60" height="30" as="geometry" />
        </mxCell>
      </root>
    </mxGraphModel>
  </diagram>
</mxfile>
